<?xml version="1.0" encoding="utf-8"?>
<!-- Generator: Adobe Illustrator 16.0.0, SVG Export Plug-In . SVG Version: 6.00 Build 0)  -->
<!DOCTYPE svg PUBLIC "-//W3C//DTD SVG 1.1//EN" "http://www.w3.org/Graphics/SVG/1.1/DTD/svg11.dtd">
<svg version="1.1" id="Layer_1" xmlns="http://www.w3.org/2000/svg" xmlns:xlink="http://www.w3.org/1999/xlink" x="0px" y="0px"
	 width="350.5px" height="73px" viewBox="0 0 350.5 73" enable-background="new 0 0 350.5 73" xml:space="preserve">
<g id="XMLID_2_">
	<circle id="XMLID_3_" fill="#FFD240" cx="36.929" cy="36.411" r="34.191"/>
	<g id="XMLID_4_">
		<g id="XMLID_2606_">
			<path id="XMLID_6_" fill="#C32033" d="M36.929,71.091c-19.104,0-34.683-15.575-34.683-34.682
				c0-19.103,15.579-34.683,34.683-34.683s34.682,15.58,34.682,34.683C71.611,55.516,56.033,71.091,36.929,71.091z M36.929,2.785
				c-18.611,0-33.697,15.084-33.697,33.624c0,18.538,15.086,33.696,33.697,33.696c18.54,0,33.696-15.086,33.696-33.696
				C70.625,17.799,55.469,2.785,36.929,2.785z"/>
		</g>
		<path id="XMLID_5_" fill="#C32033" d="M65.972,36.409c0-16.073-13.042-29.113-29.114-29.113
			C20.857,7.366,7.815,20.407,7.815,36.409c0,16.073,13.042,29.113,29.114,29.113C52.931,65.522,65.972,52.482,65.972,36.409z
			 M59.063,53.326L59.063,53.326c-0.21-1.058-1.55-1.898-2.115-2.254c-0.985-0.565-1.62-1.198-1.69-1.833
			c-0.071-0.283,0.07-0.564,0.141-0.703l0.07-0.072c0.283,0.211,1.058,0.775,2.89,2.043c0.774,0.565,1.199,1.128,1.199,1.693
			C59.487,52.626,59.275,53.046,59.063,53.326z M48.35,52.059c-0.071,0.354-0.424,0.567-0.495,0.635l-2.257,1.338
			c-0.14,0.074-0.492,0.213-0.844,0.143c-0.284-0.068-0.494-0.282-0.636-0.706l-0.353-0.774l0.071-0.067
			c0.141-0.214,0.282-0.357,0.423-0.357c0.141,0,0.21-0.138,0.21-0.21c0-0.139-0.07-0.211-0.21-0.211
			c-0.142,0-0.283-0.213-0.423-0.353c-0.211-0.281-0.563-0.632-1.057-0.632v-0.778c1.762-0.282,2.818-0.706,3.595-1.41l0,0
			l1.762,2.539C48.35,51.495,48.419,51.778,48.35,52.059z M48.561,52.977c0.07,0,0.141,0,0.212,0c0.21,0.069,0.352,0.211,0.493,0.35
			c0.071,0.214,0.141,0.424,0.071,0.565c-0.071,0.214-0.212,0.353-0.354,0.495l-0.141,0.068l0,0l-2.326,1.34
			c-0.354,0.213-0.847,0.071-1.058-0.279c-0.071-0.214-0.14-0.427-0.071-0.568c0.071-0.211,0.211-0.351,0.353-0.492l0.142-0.068l0,0
			l2.255-1.341l0,0l0.142-0.069C48.279,52.977,48.419,52.977,48.561,52.977z M43.414,52.343c-0.211,0.283-0.423,0.492-0.704,0.492
			H31.36c-0.282,0-0.495-0.209-0.705-0.492c-0.069-0.074-0.21-0.212-0.282-0.284c0.071-0.072,0.212-0.211,0.282-0.28
			c0.21-0.283,0.423-0.494,0.705-0.494h11.279c0.283,0,0.494,0.211,0.705,0.494c0.071,0.069,0.212,0.208,0.283,0.28
			C43.626,52.131,43.484,52.269,43.414,52.343z M31.712,59.106c0.776-0.491,1.27-1.334,1.552-2.535
			c0.353,0.774,1.199,1.34,1.975,1.759c0.563,0.354,1.126,0.709,1.338,1.063h-5.639C31.221,59.393,31.43,59.248,31.712,59.106z
			 M29.527,59.177c0.495-0.209,1.128-0.634,1.338-1.404c0.072-0.144,0.072-0.285,0.142-0.427c0.143-0.353,0.213-0.774,0.494-1.198
			c0.353-0.632,0.987-1.2,1.34-1.411v0.848c-0.07,1.619-0.564,2.679-1.411,3.242C30.865,59.106,30.163,59.177,29.527,59.177z
			 M35.448,57.979c-0.916-0.563-1.902-1.127-1.902-2.044v-1.548h3.172v3.029c0,0.071,0.071,0.213,0.211,0.213
			c0.142,0,0.211-0.072,0.211-0.213v-3.029h3.103c0,0.21,0,0.633,0,1.548c0,0.917-0.987,1.481-1.904,2.044
			c-0.564,0.352-1.129,0.705-1.48,1.128C36.576,58.684,36.012,58.33,35.448,57.979z M38.621,58.401
			c0.775-0.49,1.692-1.056,1.974-1.902c0.211,1.198,0.706,2.044,1.551,2.607c0.211,0.142,0.493,0.286,0.776,0.354h-5.64
			C37.492,59.106,38.057,58.757,38.621,58.401z M42.356,58.684c-0.846-0.563-1.338-1.69-1.409-3.24v-0.847
			c0.423,0.14,1.058,0.847,1.409,1.482c0.282,0.42,0.354,0.843,0.494,1.195c0.071,0.142,0.071,0.282,0.141,0.423
			c0.283,0.776,0.846,1.198,1.339,1.409C43.767,59.177,42.991,59.106,42.356,58.684z M37,53.892l-0.071-0.069
			c0,0-0.071,0-0.071,0.069h-5.216v-0.565h10.644v0.565H37z M32.418,54.387h0.141c-0.494,0.35-0.986,0.915-1.338,1.479
			c-0.284,0.422-0.426,0.844-0.496,1.27c-0.069,0.139-0.069,0.28-0.139,0.421c-0.282,0.773-0.847,1.127-1.34,1.27
			c0.21-0.425,0.281-1.054,0.352-1.623c0.071-0.352,0.071-0.632,0.142-0.846C30.445,54.526,32.277,54.387,32.418,54.387z
			 M45.388,59.953c0.353,0,0.636,0.283,0.636,0.636s-0.283,0.634-0.636,0.634H28.469c-0.352,0-0.632-0.281-0.632-0.634
			s0.281-0.636,0.632-0.636H45.388z M43.343,57.629c-0.069-0.142-0.069-0.283-0.14-0.426c-0.141-0.42-0.282-0.846-0.493-1.269
			c-0.354-0.563-0.845-1.198-1.34-1.479h0.071c0.141,0,2.043,0.142,2.678,1.975c0.071,0.212,0.071,0.492,0.142,0.845
			c0.07,0.564,0.141,1.127,0.352,1.621C44.119,58.615,43.626,58.263,43.343,57.629z M29.809,51.848
			c-0.141,0-0.211,0.139-0.211,0.211c0,0.142,0.07,0.21,0.211,0.21c0.141,0,0.213,0.144,0.354,0.214l-0.423,0.916
			c-0.141,0.352-0.353,0.565-0.635,0.707c-0.353,0.139-0.705-0.074-0.846-0.142l-2.185-1.271l-0.071-0.067
			c-0.142-0.075-0.423-0.283-0.493-0.64c-0.072-0.28,0-0.559,0.282-0.914l1.762-2.608c0.774,0.634,1.903,1.126,3.597,1.41v0.915
			c-0.355,0.074-0.636,0.354-0.847,0.639C30.163,51.635,30.022,51.778,29.809,51.848z M28.399,55.584
			c-0.211,0.351-0.706,0.495-1.058,0.282l-2.327-1.34l0,0l-0.141-0.071c-0.21-0.068-0.281-0.281-0.351-0.491
			c-0.072-0.214,0-0.424,0.07-0.565c0.141-0.281,0.422-0.422,0.705-0.422c0.141,0,0.282,0,0.424,0.069l2.257,1.341l0.069,0.068l0,0
			l0.141,0.071C28.469,54.736,28.61,55.161,28.399,55.584z M17.473,45.998c-0.071-0.211-0.14-0.424-0.071-0.565
			c0.071-0.21,0.212-0.353,0.353-0.495c0.141-0.068,0.282-0.068,0.351-0.068c0.072,0,0.142,0,0.212,0
			c0.212,0.068,0.353,0.21,0.495,0.353l1.409,2.465c0.072,0.212,0.141,0.424,0.072,0.563c-0.072,0.213-0.212,0.354-0.353,0.494
			c-0.353,0.211-0.846,0.071-1.058-0.281L17.473,45.998z M18.106,48.111l-2.677,1.901c-0.071,0.072-0.142,0.072-0.212,0.143
			c-0.07,0-0.07,0.071-0.141,0.071l-0.071,0.066c-0.775,0.57-1.833,0.214-2.256,0.075c0.071-0.424,0.354-1.482,1.2-1.904
			l3.453-1.621L18.106,48.111z M19.306,45.08c-0.071-0.142-0.211-0.492-0.141-0.846c0.07-0.281,0.282-0.491,0.705-0.636l5.004-2.395
			c0.071,0.14,0.141,0.282,0.213,0.421c0.351,0.988,0.563,1.974,0.705,2.895c0.07,0.208,0.07,0.351,0.07,0.562l-3.737,2.536
			c-0.352,0.214-0.634,0.355-0.915,0.283c-0.353-0.069-0.565-0.423-0.634-0.492L19.306,45.08z M25.51,41.485
			c-0.565-1.621-1.481-2.185-2.256-2.678c-0.565-0.353-0.987-0.636-1.129-1.27c0.143,0.142,0.706,0.775,2.044,1.128
			c1.623,0.422,2.257,1.198,2.681,3.03c0.14,0.565,0.21,1.13,0.28,1.763c0.353,2.394,0.706,5.078,3.877,5.92
			c-3.947-0.634-4.299-2.464-4.794-5.074C26.074,43.529,25.861,42.543,25.51,41.485z M22.056,38.455L22.056,38.455l-3.525,0.281
			c-0.424,0-0.705-0.07-0.916-0.21c-0.281-0.213-0.281-0.634-0.281-0.778V35.14c0-0.14,0-0.563,0.281-0.774
			c0.141-0.141,0.423-0.211,0.704-0.211c0.07,0,0.141,0,0.212,0l12.265,0.916l0,0l1.341,0.07l0,0h0.211v2.539
			c-0.353-0.213-0.705-0.423-0.705-0.636c0-0.139-0.142-0.211-0.212-0.211c-0.14,0-0.209,0.072-0.209,0.211
			c-0.07,0.283-0.496,0.566-0.988,0.85c-0.07,0-0.07,0.068-0.14,0.068c-0.143-0.139-0.424-0.281-0.565-0.423
			c-0.211-0.14-0.493-0.353-0.563-0.495c0-0.139-0.141-0.211-0.212-0.211c-0.142,0-0.212,0.072-0.212,0.211
			c0,0.142-0.281,0.283-0.562,0.495c-0.213,0.142-0.495,0.284-0.636,0.492c-0.705-0.35-1.621-0.563-2.678-0.631
			c-1.34-0.072-2.114-0.282-2.608-0.708c-0.072-0.067-0.142-0.067-0.283,0c-0.07,0.073-0.141,0.142-0.141,0.214
			C21.491,37.608,21.772,38.102,22.056,38.455z M17.473,26.892l1.41-2.467c0.07-0.211,0.282-0.281,0.493-0.353
			c0.071,0,0.141,0,0.212,0c0.141,0,0.281,0,0.353,0.072c0.21,0.07,0.281,0.281,0.353,0.493c0.069,0.211,0,0.422-0.072,0.564
			l-1.409,2.467c-0.212,0.353-0.707,0.494-1.058,0.283C17.402,27.74,17.262,27.246,17.473,26.892z M14.441,24.637
			c-0.07,0-0.14-0.07-0.211-0.07c-0.071,0-0.071-0.071-0.139-0.071l-0.142-0.071c-0.917-0.422-1.128-1.479-1.2-1.903
			c0.423-0.14,1.48-0.492,2.256,0.072l3.101,2.185l-0.704,1.269L14.441,24.637z M19.306,27.81l1.338-2.256
			c0.071-0.142,0.283-0.422,0.635-0.494c0.071,0,0.071,0,0.141,0c0.211,0,0.494,0.072,0.704,0.282l10.152,6.91l0.141,0.28l0,0
			c0,0,0,0.071,0,0.143c0,0.14,0.07,0.209,0.21,0.209c0.072,0,0.143,0.143,0.213,0.213c0.141,0.214,0.353,0.425,0.705,0.425h0.211
			l0,0v0.068c0,0.142-0.281,0.281-0.563,0.424c-0.282,0.21-0.634,0.423-0.846,0.705l-1.411-0.141L19.87,29.219
			c-0.353-0.142-0.563-0.353-0.705-0.633C19.095,28.23,19.235,27.88,19.306,27.81z M53.073,15.473c0.422,0,0.775,0.353,0.775,0.775
			v0.705H19.941v-0.635c0-0.424,0.353-0.776,0.774-0.776h32.358V15.473z M34.955,15.051c0.141-0.142,0.352-0.212,0.493-0.212h2.891
			c0.211,0,0.353,0.071,0.494,0.212H34.955z M53.848,17.376v1.198H19.941v-1.198H53.848z M53.848,19.139v0.635
			c0,0.422-0.353,0.775-0.775,0.775H20.715c-0.421,0-0.774-0.353-0.774-0.775v-0.635H53.848z M43.062,26.33
			c0,1.691-0.423,2.96-1.269,3.666c-0.493,0.423-1.128,0.632-1.622,0.632c0.071,0,0.071-0.07,0.141-0.07
			c0.987-0.703,1.48-2.467,1.48-5.146c0-0.493,0.141-2.749,2.89-3.594c-0.071,0.07-0.141,0.07-0.141,0.142
			C43.133,23.086,43.062,25.554,43.062,26.33z M56.316,26.892c0.069,0.212,0.141,0.423,0.069,0.565
			c-0.069,0.21-0.211,0.352-0.352,0.493c-0.213,0.07-0.423,0.141-0.564,0.07c-0.211-0.07-0.352-0.211-0.493-0.353l-0.071-0.141l0,0
			L54.271,26.4l-0.706-1.269c-0.07-0.213-0.14-0.424-0.07-0.564c0.07-0.212,0.211-0.353,0.353-0.493
			c0.142-0.071,0.282-0.071,0.423-0.071c0.282,0,0.563,0.141,0.705,0.422L56.316,26.892z M55.681,24.778l2.678-1.903
			c0.071-0.07,0.141-0.07,0.212-0.141c0.07,0,0.07-0.071,0.139-0.071l0.072-0.07c0.775-0.564,1.833-0.212,2.256-0.072
			c-0.071,0.424-0.353,1.481-1.199,1.903l-3.454,1.622L55.681,24.778z M54.34,27.458l0.212,0.352c0.069,0.141,0.21,0.493,0.14,0.846
			c-0.071,0.282-0.282,0.494-0.703,0.635l-11.14,5.287l-1.34,0.07l0,0c-0.14-0.282-0.492-0.493-0.845-0.705
			c-0.211-0.14-0.422-0.282-0.493-0.353V33.45h0.282c0.353,0,0.565-0.284,0.704-0.424c0.071-0.071,0.143-0.213,0.212-0.213
			c0.14,0,0.212-0.14,0.212-0.211c0-0.139-0.072-0.211-0.212-0.211l0.071-0.14l10.151-6.91c0.352-0.21,0.634-0.353,0.915-0.282
			c0.354,0.072,0.565,0.423,0.636,0.494L54.34,27.458z M55.258,34.154c0.423-0.071,0.705,0.07,0.916,0.211
			c0.283,0.212,0.283,0.635,0.283,0.774v2.608c0,0.145,0,0.565-0.283,0.778c-0.211,0.21-0.493,0.281-0.916,0.21l-3.454-0.281
			c0.351-0.353,0.562-0.846,0.562-1.551c0-0.072-0.069-0.214-0.14-0.214c-0.071-0.067-0.211,0-0.282,0
			c-0.564,0.426-1.339,0.635-2.607,0.708c-1.057,0.068-1.904,0.281-2.609,0.631c-0.211-0.208-0.423-0.35-0.634-0.42
			c-0.211-0.143-0.495-0.353-0.563-0.493c0-0.142-0.143-0.212-0.211-0.212c-0.143,0-0.212,0.07-0.212,0.212
			c0,0.14-0.282,0.282-0.564,0.493c-0.212,0.139-0.423,0.284-0.634,0.494c-0.071-0.073-0.142-0.073-0.211-0.142
			c-0.422-0.281-0.917-0.563-0.987-0.844c0-0.142-0.141-0.212-0.212-0.212c-0.142,0-0.212,0.07-0.212,0.212
			c-0.069,0.209-0.281,0.421-0.634,0.632V35.14l3.667-0.283l0,0L55.258,34.154z M33.546,39.511
			c-0.282,0.353-0.494,0.775-0.494,1.201v8.315c-1.34-0.776-1.551-2.96-1.551-3.875v-5.427c0-0.072-0.071-0.214-0.21-0.214
			c-0.14,0-0.212,0.071-0.212,0.214v5.427c0,0.846,0.143,2.608,1.058,3.665c-0.635-0.422-1.129-0.986-1.412-2.044
			c-0.139-0.563-0.28-1.34-0.351-2.115c-0.211-1.621-0.424-3.454-1.339-4.865v-0.139c0-0.565,0.634-0.987,1.27-1.34
			c0.352-0.21,0.774-0.492,0.987-0.775c0.21,0.21,0.493,0.355,0.774,0.565C32.771,38.526,33.404,38.949,33.546,39.511z M41.3,21.605
			c-0.143,0.071-0.212,0.141-0.353,0.282c-0.141-0.141-0.353-0.211-0.494-0.282c-0.21-0.141-0.493-0.282-0.563-0.422v-0.071h2.82
			C42.217,21.112,41.722,21.254,41.3,21.605z M44.755,21.395c-1.693,0.493-3.313,1.763-3.313,4.017c0,3.174-0.706,4.373-1.27,4.865
			c-0.282,0.211-0.564,0.282-0.775,0.282c0.07-0.635,0.281-2.115,0.634-5.64c0.142-1.338,0.635-2.325,1.552-2.889
			C42.498,21.395,43.767,21.324,44.755,21.395z M40.243,21.959c0.14,0.07,0.28,0.14,0.352,0.21
			c-0.423,0.424-0.705,0.988-0.917,1.692c0-0.141-0.07-0.212-0.07-0.281c-0.141-0.495-0.563-0.917-1.058-1.199
			c0.142-0.142,0.352-0.283,0.565-0.422c0.21-0.142,0.352-0.212,0.563-0.354C39.82,21.677,40.03,21.817,40.243,21.959z
			 M39.467,21.042c0,0.142-0.283,0.282-0.565,0.423c-0.209,0.141-0.491,0.282-0.704,0.495c0,0,0,0-0.069,0
			c-0.495-0.354-0.918-0.635-0.988-0.987v-0.071h2.327C39.467,21.042,39.467,21.042,39.467,21.042z M37.916,22.381
			c0.564,0.353,1.128,0.776,1.268,1.268c0.212,0.564,0.212,2.469,0,4.301l-0.352,2.677h-1.761v-7.471
			c0-0.071-0.071-0.211-0.213-0.211c-0.14,0-0.211,0.07-0.211,0.211v7.542h-1.622l-0.351-2.678c-0.211-1.903-0.141-3.807,0-4.3
			c0.141-0.563,0.704-0.916,1.269-1.269c0.353-0.282,0.705-0.493,0.916-0.775C37.21,21.888,37.563,22.169,37.916,22.381z
			 M36.718,21.042c-0.071,0.353-0.495,0.635-0.988,0.988c0,0,0,0-0.069,0c-0.212-0.212-0.422-0.353-0.706-0.495
			c-0.21-0.14-0.493-0.281-0.564-0.422c0-0.071,0-0.071-0.07-0.071H36.718L36.718,21.042z M34.745,21.959
			c0.21,0.14,0.351,0.21,0.493,0.352c-0.423,0.352-0.847,0.705-1.059,1.27c0,0.069-0.07,0.14-0.07,0.281
			c-0.211-0.634-0.493-1.198-0.845-1.622c0.141-0.07,0.212-0.141,0.353-0.21c0.212-0.142,0.352-0.212,0.563-0.353
			C34.391,21.747,34.603,21.817,34.745,21.959z M34.038,21.112c0,0.142-0.281,0.282-0.562,0.422
			c-0.142,0.071-0.354,0.212-0.495,0.283c-0.141-0.071-0.21-0.212-0.354-0.283c-0.422-0.281-0.916-0.493-1.478-0.563h2.888
			C34.038,21.042,34.038,21.042,34.038,21.112z M32.348,21.959c0.916,0.563,1.409,1.55,1.55,2.889
			c0.352,3.525,0.565,5.007,0.635,5.639c-0.142,0-0.495,0-0.917-0.282c-0.564-0.421-1.268-1.692-1.268-4.864
			c0-2.256-1.624-3.524-3.314-4.018C30.092,21.254,31.36,21.324,32.348,21.959z M34.321,31.192L34.321,31.192h0.563l0,0h4.16l0,0
			h0.563c0.07,0,0.07,0,0.141,0l0,0v0.494h-5.427V31.192z M40.454,32.11c0.141,0,0.211,0.071,0.353,0.281
			c0.07,0.072,0.07,0.072,0.141,0.14c-0.071,0.071-0.071,0.071-0.141,0.143c-0.141,0.14-0.211,0.281-0.353,0.281h-6.837
			c-0.14,0-0.212-0.072-0.353-0.281c-0.07-0.072-0.07-0.072-0.142-0.143c0.071-0.068,0.071-0.068,0.142-0.14
			c0.141-0.14,0.212-0.281,0.353-0.281H40.454z M42.498,37.679c0.212,0.281,0.564,0.492,0.986,0.706
			c0.565,0.423,1.271,0.774,1.271,1.408v0.142c-0.847,1.409-1.129,3.244-1.341,4.793c-0.071,0.776-0.211,1.482-0.352,2.116
			c-0.282,1.196-0.917,1.832-1.621,2.185c1.057-1.056,1.197-2.96,1.197-3.805v-5.431c0-0.067-0.069-0.209-0.211-0.209
			s-0.211,0.07-0.211,0.209v5.431c0,0.914-0.141,3.172-1.552,3.875c0-1.902,0-6.908,0-8.317c0-0.424-0.142-0.775-0.422-1.128
			c0.07-0.495,0.704-0.846,1.267-1.198C41.934,38.171,42.286,37.96,42.498,37.679z M44.331,38.384
			c0.141-0.142,0.282-0.213,0.494-0.355c0.212-0.137,0.352-0.208,0.495-0.35c0.14,0.142,0.35,0.281,0.492,0.35
			c0.141,0.073,0.282,0.213,0.423,0.284c-0.423,0.281-0.846,0.637-1.127,0.987C44.965,38.949,44.683,38.666,44.331,38.384z
			 M41.158,38.102c-0.422,0.282-0.845,0.563-1.127,0.986V35.07c0-0.07-0.07-0.213-0.21-0.213c-0.143,0-0.213,0.071-0.213,0.213
			v4.018c-0.282-0.213-0.634-0.422-0.986-0.633V35.21c0-0.282,0.353-0.492,0.704-0.703c0.212-0.142,0.353-0.213,0.565-0.353
			c0.14,0.14,0.353,0.283,0.563,0.353c0.353,0.211,0.704,0.421,0.704,0.703V38.102z M36.858,39.44c-0.069,0-0.211,0.071-0.211,0.212
			v10.01h-2.326c-0.071,0-0.142-0.073-0.212-0.073c-0.141-0.066-0.352-0.066-0.563-0.139v-8.67c0-0.917,0.987-1.481,1.902-2.045
			c0.564-0.352,1.128-0.707,1.481-1.127c0.281,0.42,0.845,0.776,1.481,1.127c0.915,0.564,1.903,1.128,1.903,2.045
			c0,1.622,0,7.191,0,8.743c-0.141,0.066-0.283,0.066-0.493,0.14c-0.072,0-0.143,0.072-0.213,0.072H37V39.653
			C37,39.511,36.929,39.44,36.858,39.44z M37.492,34.365c0.353,0.212,0.705,0.424,0.705,0.705v2.959
			c-0.563-0.35-1.057-0.704-1.126-1.125c0-0.072-0.071-0.141-0.071-0.141V36.69V35c0-0.072-0.071-0.211-0.211-0.211
			c-0.142,0-0.213,0.068-0.213,0.211v1.69c0,0.073,0,0.073,0,0.073c-0.07,0-0.07,0.068-0.07,0.141
			c-0.07,0.352-0.423,0.633-0.916,0.988V35.07c0-0.281,0.353-0.493,0.705-0.705c0.211-0.141,0.352-0.211,0.563-0.352
			C37.14,34.154,37.281,34.294,37.492,34.365z M37.21,33.45h2.538l0,0v0.071c0,0.139-0.281,0.281-0.564,0.421
			c-0.21,0.141-0.492,0.282-0.704,0.495c-0.21-0.213-0.494-0.354-0.706-0.495c-0.211-0.14-0.493-0.282-0.564-0.421V33.45z
			 M36.718,33.521c0,0.139-0.282,0.281-0.565,0.421c-0.21,0.141-0.492,0.282-0.705,0.495c-0.21-0.213-0.493-0.354-0.703-0.495
			c-0.212-0.14-0.424-0.282-0.496-0.353V33.45h2.469C36.789,33.45,36.718,33.521,36.718,33.521z M34.533,34.365
			c0.352,0.212,0.706,0.424,0.706,0.705v3.172l-0.072,0.07c-0.352,0.213-0.704,0.423-1.058,0.704V35
			c0-0.072-0.071-0.211-0.211-0.211S33.686,34.857,33.686,35v3.875c-0.21-0.349-0.634-0.632-0.986-0.846V35.07
			c0-0.281,0.352-0.493,0.705-0.705c0.212-0.141,0.353-0.211,0.564-0.352C34.179,34.154,34.391,34.294,34.533,34.365z M28.751,39.3
			c-0.283-0.351-0.634-0.707-1.058-0.916c0.143-0.142,0.284-0.213,0.494-0.355c0.211-0.137,0.352-0.208,0.494-0.35
			c0.14,0.142,0.352,0.281,0.492,0.35c0.142,0.073,0.282,0.213,0.424,0.284C29.246,38.593,28.893,38.949,28.751,39.3z
			 M30.022,44.799c0.07,0.775,0.21,1.552,0.352,2.184c0.351,1.198,0.986,1.903,1.691,2.396c-3.807-0.493-4.159-3.242-4.512-5.85
			c-0.07-0.632-0.142-1.269-0.282-1.834c-0.493-1.97-1.197-2.821-2.959-3.311c-0.635-0.142-1.058-0.424-1.341-0.637
			c0.565,0.145,1.128,0.212,1.622,0.212C29.104,38.242,29.598,41.695,30.022,44.799z M31.573,50.227h10.644v0.563H31.573V50.227z
			 M41.865,49.312c0.705-0.426,1.338-1.131,1.62-2.329c0.142-0.632,0.282-1.341,0.353-2.184c0.423-3.104,0.846-6.557,5.499-6.839
			c0.494,0,0.986-0.068,1.481-0.212c-0.282,0.212-0.707,0.423-1.269,0.565c-1.764,0.495-2.468,1.34-2.961,3.312
			c-0.141,0.565-0.211,1.201-0.282,1.834C45.882,46.067,45.53,48.745,41.865,49.312z M41.158,31.827l-0.139,0.071
			c-0.142-0.141-0.354-0.283-0.565-0.283h-0.282v-0.494c0.563-0.07,1.27-0.283,1.904-0.774c0.07-0.071,0.07-0.071,0.141-0.142
			L41.158,31.827z M44.825,22.239c0.495-0.422,1.127-0.634,1.903-0.493c0.141,0,0.211-0.07,0.281-0.212
			c0-0.14-0.07-0.211-0.14-0.281c-0.07,0-0.564-0.212-1.27-0.282h2.82c0,0.211-0.069,0.423-0.282,0.705l-4.934,7.261
			c0.281-0.707,0.423-1.622,0.423-2.607C43.555,25.625,43.626,23.298,44.825,22.239z M28.399,20.972
			c-0.706,0.141-1.269,0.282-1.269,0.282c-0.141,0.07-0.212,0.141-0.141,0.281c0,0.142,0.141,0.212,0.281,0.212
			c0.776-0.07,1.411,0.071,1.903,0.493c1.199,1.059,1.271,3.385,1.271,4.02c0,1.268,0.21,2.327,0.633,3.1l-5.287-7.753
			c-0.141-0.211-0.282-0.493-0.282-0.705h2.89V20.972z M30.865,26.33c0-0.706-0.07-3.244-1.409-4.442l-0.07-0.07
			c2.467,0.917,2.679,3.101,2.679,3.524c0,2.679,0.494,4.442,1.481,5.146c0.07,0,0.07,0.071,0.14,0.071
			c-0.493-0.071-0.986-0.282-1.48-0.635C31.221,29.29,30.795,28.021,30.865,26.33z M31.783,30.348
			c0.635,0.563,1.41,0.704,2.045,0.774v0.494h-0.212c-0.282,0-0.494,0.212-0.705,0.353l0,0l-0.284-0.21l-1.268-1.834l0,0
			C31.501,30.066,31.643,30.206,31.783,30.348z M42.569,49.523c3.313-0.849,3.665-3.525,4.018-5.994
			c0.07-0.632,0.141-1.269,0.282-1.764c0.421-1.902,1.057-2.607,2.68-3.03c1.409-0.423,2.044-1.127,2.115-1.199v-0.072
			c0,0,0.07,0,0.07-0.068c-0.141,0.631-0.565,0.987-1.198,1.338c-0.775,0.495-1.693,1.128-2.256,2.678
			c-0.354,1.059-0.565,2.045-0.705,2.962C47.15,47.054,46.798,48.956,42.569,49.523z M48.137,44.519
			c0.213-0.92,0.354-1.907,0.705-2.895c0.07-0.139,0.141-0.281,0.141-0.421l4.936,2.395c0.352,0.145,0.563,0.355,0.703,0.636
			c0.141,0.354-0.069,0.704-0.141,0.846l-1.269,2.255c-0.069,0.142-0.282,0.425-0.635,0.495c-0.281,0.069-0.563,0-0.915-0.282
			l-3.667-2.468l0,0C48.066,44.938,48.066,44.727,48.137,44.519z M53.565,47.688l0.069-0.14l0,0l0.637-1.128l0.705-1.268
			c0.211-0.353,0.705-0.495,1.057-0.282c0.352,0.21,0.494,0.705,0.283,1.057l-1.411,2.468c-0.07,0.211-0.283,0.28-0.494,0.351
			c-0.211,0.071-0.421,0-0.563-0.07C53.425,48.536,53.353,48.039,53.565,47.688z M59.416,48.251c0.072,0,0.142,0.071,0.213,0.071
			c0.07,0,0.07,0,0.141,0.072l0.141,0.069c0.916,0.422,1.128,1.48,1.199,1.904c-0.424,0.139-1.481,0.495-2.256-0.075l-3.101-2.182
			l0.705-1.269L59.416,48.251z M59.91,52.626c0-0.144,0.069-0.283,0.069-0.426c0-0.422-0.14-0.772-0.422-1.128
			c0.141,0,0.211,0,0.353,0c0.493,0,0.916-0.142,1.199-0.209C60.757,51.495,60.333,52.059,59.91,52.626z M61.532,50.155
			c-0.07-0.353-0.212-0.916-0.564-1.41c0.071,0,0.142,0,0.212,0c0.353,0,0.704-0.07,0.986-0.209
			c0.141-0.072,0.282-0.142,0.353-0.285C62.166,48.886,61.883,49.523,61.532,50.155z M61.883,48.111
			c-0.493,0.283-1.126,0.211-1.903-0.14l-0.351-0.212c-1.833-0.845-2.609-1.268-2.961-1.409l0,0
			c0.068-0.142,0.281-0.424,0.564-0.498c0.564-0.211,1.41-0.065,2.397,0.567c0.562,0.353,1.973,1.057,2.96,0.704c0,0,0,0,0.072,0
			C62.518,47.548,62.237,47.899,61.883,48.111z M63.364,46.209c0-0.072-0.071-0.072-0.142-0.142c-0.14,0-0.211,0.069-0.281,0.142
			c-0.072,0.211-0.212,0.425-0.423,0.493c-0.635,0.213-1.761-0.21-2.539-0.704c-1.197-0.705-2.115-0.918-2.818-0.565
			c-0.072,0-0.072,0.07-0.142,0.07c0-0.423-0.283-0.776-0.634-0.984c-0.352-0.213-0.775-0.213-1.127-0.072
			c0-0.142,0-0.212-0.071-0.354c-0.142-0.424-0.424-0.706-0.916-0.915l-4.935-2.397c0.494-0.847,1.126-1.27,1.69-1.623
			c0.141-0.07,0.283-0.142,0.353-0.284l3.948,0.284c0.07,0,0.141,0,0.211,0c0.424,0,0.777-0.142,1.057-0.351
			c0.071-0.071,0.14-0.142,0.213-0.281c0.21,0.281,0.563,0.491,0.986,0.491c0.422,0,0.846-0.209,1.058-0.562l0.07,0.071
			c0.492,0.632,1.409,0.915,2.748,0.915c0.989,0,2.116,0.142,2.538,0.705c0.142,0.211,0.213,0.423,0.142,0.636
			c0,0.143,0.071,0.209,0.14,0.281h0.073c0.069,0,0.069,0,0.139,0C64.422,42.897,63.928,44.588,63.364,46.209z M56.948,37.892
			v-0.145V35.14V35c0-0.423,0.354-0.776,0.777-0.776S58.5,34.577,58.5,35v2.892c0,0.42-0.352,0.773-0.775,0.773
			S56.948,38.313,56.948,37.892z M62.661,34.928L62.237,35c-2.047,0.14-2.891,0.21-3.244,0.281V35.21c0-0.21,0.07-0.421,0.212-0.703
			c0.352-0.493,1.197-0.705,2.326-0.705h0.07c0.636,0,2.255-0.071,2.963-0.847l0,0c0.069,0.355,0,0.776-0.213,1.199
			C64.069,34.507,63.505,34.789,62.661,34.928z M64.844,36.409c-0.279,0.354-1.057,1.128-1.974,1.056l-3.806-0.35v-1.411
			l3.313-0.282c0.071,0,0.142,0,0.212,0c0.072,0,0.072,0,0.141,0h0.14C63.787,35.281,64.564,36.058,64.844,36.409z M62.518,37.96
			c0.916,0.069,1.551,0.353,1.904,0.847c0.212,0.351,0.212,0.775,0.212,1.198l0,0c-0.635-0.775-2.187-0.847-2.891-0.847h-0.072
			c-1.198,0-1.973-0.209-2.396-0.704c-0.212-0.212-0.212-0.495-0.212-0.707v-0.069C59.346,37.679,60.333,37.748,62.518,37.96z
			 M64.986,39.017c-0.071-0.142-0.071-0.281-0.212-0.423c-0.209-0.351-0.493-0.633-0.917-0.772c0.565-0.212,0.987-0.637,1.199-0.917
			C65.056,37.537,65.056,38.313,64.986,39.017z M64.986,33.871c0.07,0.707,0.07,1.41,0.14,2.115
			c-0.211-0.281-0.635-0.705-1.198-0.916c0.423-0.213,0.706-0.422,0.916-0.776C64.844,34.154,64.915,34.014,64.986,33.871z
			 M62.87,26.611c0.072,0.141,0.142,0.21,0.283,0.141c0.07,0,0.141-0.071,0.141-0.141c0.634,1.619,1.058,3.312,1.34,5.075
			c-0.069,0-0.143-0.071-0.212,0c-0.141,0.071-0.213,0.141-0.141,0.282c0.07,0.284,0,0.495-0.141,0.634
			c-0.423,0.494-1.622,0.708-2.538,0.708c-1.34,0-2.255,0.279-2.749,0.914c0,0.07-0.071,0.07-0.071,0.141
			c-0.211-0.352-0.634-0.563-1.057-0.563s-0.777,0.211-0.989,0.492c-0.068-0.07-0.14-0.211-0.209-0.28
			c-0.283-0.282-0.707-0.424-1.269-0.354L44.19,34.507l10.01-4.793c0.493-0.21,0.776-0.564,0.917-0.917
			c0.07-0.141,0.07-0.21,0.07-0.353c0.071,0,0.141,0.07,0.211,0.07c0.141,0,0.212,0.072,0.354,0.072
			c0.211,0,0.422-0.072,0.633-0.143c0.282-0.141,0.493-0.422,0.563-0.775c0-0.07,0-0.141,0.071-0.21c0.07,0,0.07,0.07,0.142,0.07
			c0.21,0.07,0.424,0.141,0.703,0.141c0.636,0,1.341-0.21,2.115-0.705c0.847-0.492,1.903-0.916,2.539-0.704
			C62.661,26.188,62.8,26.33,62.87,26.611z M62.588,25.695c-0.987-0.354-2.398,0.423-2.96,0.705
			c-0.987,0.563-1.833,0.774-2.397,0.563c-0.283-0.142-0.496-0.352-0.564-0.563l0,0c0.352-0.141,1.197-0.565,3.172-1.481
			c0.846-0.423,1.551-0.494,2.043-0.211C62.237,24.989,62.518,25.342,62.588,25.695C62.661,25.695,62.588,25.695,62.588,25.695z
			 M62.518,24.637c-0.142-0.07-0.212-0.212-0.353-0.283c-0.352-0.21-0.775-0.282-1.198-0.21c0.352-0.495,0.494-1.058,0.634-1.41
			C61.883,23.298,62.166,23.931,62.518,24.637z M59.91,20.196c0.422,0.563,0.775,1.199,1.128,1.763
			c-0.353-0.142-0.918-0.282-1.48-0.212c0.282-0.352,0.422-0.775,0.422-1.127C59.979,20.478,59.979,20.336,59.91,20.196z
			 M59.063,19.492c0.212,0.282,0.424,0.704,0.424,1.127c0,0.564-0.354,1.127-1.058,1.62l-0.282,0.212
			c-1.691,1.129-2.396,1.692-2.679,1.903l-0.07-0.068c-0.07-0.142-0.141-0.425-0.141-0.706c0.07-0.635,0.633-1.27,1.69-1.834
			C57.514,21.395,58.923,20.549,59.063,19.492C59.063,19.561,59.063,19.492,59.063,19.492z M54.481,14.909
			c0.071,0.071,0.211,0.071,0.353,0c0.07-0.071,0.07-0.071,0.07-0.141c1.339,1.126,2.539,2.326,3.667,3.664
			c-0.071,0-0.142,0-0.142,0.071c-0.071,0.071-0.071,0.211,0,0.353c0.142,0.211,0.212,0.423,0.212,0.635
			c-0.142,0.634-1.057,1.409-1.906,1.832c-1.197,0.635-1.831,1.41-1.901,2.186c0,0.071,0,0.071,0,0.14
			c-0.353-0.14-0.775-0.14-1.2,0.071c-0.35,0.21-0.562,0.565-0.632,0.986c-0.072-0.07-0.211-0.07-0.354-0.14
			c-0.423-0.071-0.845,0-1.269,0.352l-9.163,6.274l6.275-9.163c0.209-0.353,0.351-0.635,0.351-0.988h4.23
			c0.705,0,1.268-0.564,1.268-1.268v-3.455c0-0.705-0.563-1.268-1.268-1.268c0.071,0,0.14,0,0.14,0
			c0.212-0.142,0.421-0.282,0.635-0.282C54.13,14.698,54.34,14.769,54.481,14.909z M53.777,14.275
			c-0.424,0.07-0.847,0.423-1.199,0.776h-1.551c0.565-0.776,1.128-1.2,1.693-1.2C53.144,13.851,53.495,13.992,53.777,14.275
			C53.848,14.275,53.777,14.275,53.777,14.275z M53.144,13.429c-0.141,0-0.283-0.07-0.424-0.07l0,0c-0.423,0-0.776,0.14-1.127,0.422
			c0.071-0.635-0.071-1.198-0.212-1.551C51.944,12.583,52.578,13.005,53.144,13.429z M50.745,14.487l-0.352,0.563h-2.185
			l0.493-1.129c0-0.071,0.071-0.14,0.071-0.21c0-0.071,0.07-0.071,0.07-0.143l0.07-0.14c0.424-0.917,1.48-1.129,1.905-1.199
			C51.027,12.653,51.31,13.711,50.745,14.487z M50.605,11.808c-0.354,0.071-0.916,0.21-1.411,0.563c0.071-0.424,0-0.845-0.211-1.197
			c-0.07-0.141-0.141-0.283-0.282-0.354C49.336,11.174,49.97,11.456,50.605,11.808z M48.561,11.456
			c0.282,0.492,0.212,1.128-0.069,1.904l-0.212,0.352c-0.213,0.493-0.424,0.916-0.636,1.269h-1.338
			c0.071-0.423,0.282-0.847,0.564-1.339c0.353-0.564,1.057-1.975,0.706-2.962c0,0,0,0,0-0.07
			C47.997,10.82,48.35,11.103,48.561,11.456z M40.735,9.129c0.212-0.142,0.422-0.211,0.635-0.142c0.14,0,0.212-0.07,0.282-0.141
			c0-0.071,0-0.141,0-0.212c1.762,0.284,3.455,0.776,5.076,1.341c-0.071,0-0.071,0.071-0.141,0.141c0,0.141,0.07,0.212,0.141,0.282
			c0.211,0.07,0.423,0.211,0.494,0.423c0.211,0.635-0.213,1.763-0.705,2.539c-0.354,0.563-0.564,1.128-0.634,1.55h-6.416
			c-0.07-0.211-0.211-0.352-0.422-0.495l0.071-0.07c0.633-0.494,0.915-1.41,0.915-2.749C40.101,10.751,40.243,9.622,40.735,9.129z
			 M40.454,8.775L40.454,8.775c-0.846,0.705-0.916,2.328-0.846,2.961c0,1.198-0.211,1.975-0.706,2.396
			c-0.209,0.212-0.491,0.212-0.704,0.212h-0.069c0.069-0.353,0.141-1.269,0.282-3.524c0.07-0.916,0.352-1.55,0.846-1.903
			C39.678,8.775,40.101,8.705,40.454,8.775z M39.467,8.353c-0.142,0.072-0.283,0.072-0.422,0.211
			C38.692,8.775,38.41,9.059,38.27,9.48c-0.212-0.563-0.636-0.986-0.918-1.198C38.057,8.283,38.762,8.283,39.467,8.353z
			 M36.929,8.495c0.352,0.281,1.128,1.058,1.057,1.973l-0.353,3.807h-1.41l-0.281-3.242c0-0.071,0-0.142,0-0.213
			c0-0.069,0-0.069,0-0.142v-0.14C35.802,9.553,36.576,8.775,36.929,8.495z M36.506,8.283c-0.282,0.212-0.704,0.635-0.916,1.198
			c-0.212-0.422-0.423-0.705-0.775-0.917c-0.141-0.069-0.282-0.14-0.424-0.211C35.025,8.283,35.73,8.283,36.506,8.283z
			 M34.533,8.987c0.492,0.283,0.774,0.846,0.845,1.691l0.071,0.424c0.142,2.044,0.212,2.889,0.282,3.242h-0.14
			c-0.212,0-0.423-0.07-0.706-0.212c-0.493-0.351-0.705-1.198-0.705-2.396c0-0.634-0.07-2.256-0.845-2.961l0,0
			C33.757,8.705,34.179,8.775,34.533,8.987z M26.637,10.891c0.072-0.212,0.213-0.353,0.494-0.423
			c0.141-0.07,0.211-0.141,0.141-0.282c0-0.07-0.07-0.14-0.141-0.14c1.621-0.635,3.314-1.058,5.076-1.34c0,0.07-0.07,0.141,0,0.212
			c0.071,0.141,0.142,0.211,0.282,0.141c0.283-0.071,0.493,0,0.634,0.141c0.494,0.422,0.706,1.621,0.706,2.537
			c0,1.339,0.281,2.255,0.917,2.75c0.07,0,0.07,0.07,0.139,0.07c-0.139,0.141-0.281,0.281-0.422,0.494h-6.415
			c-0.069-0.494-0.354-0.988-0.636-1.551C26.85,12.653,26.355,11.526,26.637,10.891z M26.142,10.679L26.142,10.679
			c-0.351,0.987,0.354,2.468,0.708,3.033c0.28,0.493,0.492,0.916,0.562,1.339h-1.338c-0.212-0.423-0.423-0.918-0.706-1.482
			c-0.423-0.844-0.495-1.551-0.211-2.042C25.438,11.103,25.792,10.82,26.142,10.679z M25.087,10.82
			c-0.072,0.142-0.213,0.213-0.284,0.354c-0.21,0.353-0.28,0.773-0.21,1.197c-0.494-0.353-1.057-0.492-1.41-0.634
			C23.818,11.456,24.451,11.174,25.087,10.82z M22.971,12.23c0.424,0.07,1.48,0.353,1.903,1.199l0.706,1.551h-2.185l-0.071-0.071
			c-0.07-0.071-0.07-0.141-0.141-0.211c0-0.07-0.071-0.07-0.071-0.141l-0.07-0.143C22.478,13.711,22.83,12.653,22.971,12.23z
			 M22.478,12.23c-0.14,0.353-0.283,0.917-0.211,1.481c-0.353-0.282-0.776-0.423-1.129-0.423c-0.142,0-0.281,0-0.423,0.071
			C21.279,13.005,21.843,12.583,22.478,12.23z M21.068,13.851C21.068,13.851,21.138,13.851,21.068,13.851
			c0.563,0,1.127,0.354,1.621,1.058l0.071,0.142h-1.55c-0.353-0.353-0.776-0.706-1.199-0.776c0,0,0,0-0.07,0
			C20.293,14.063,20.644,13.851,21.068,13.851z M15.43,18.504c-0.071-0.071-0.071-0.071-0.142-0.071
			c1.127-1.338,2.327-2.538,3.665-3.664c0,0.07,0,0.141,0.071,0.141c0.072,0.071,0.211,0.071,0.353,0
			c0.212-0.141,0.423-0.211,0.635-0.211c0.211,0.071,0.423,0.141,0.633,0.282c0.071,0,0.142,0,0.142,0
			c-0.704,0-1.269,0.563-1.269,1.269v3.455c0,0.704,0.564,1.269,1.269,1.269h4.229c0,0.282,0.142,0.634,0.354,0.916l6.274,9.164
			l-9.165-6.274c-0.422-0.282-0.847-0.423-1.269-0.353c-0.141,0-0.213,0.071-0.353,0.142c0-0.071,0-0.142,0-0.212
			c-0.071-0.352-0.282-0.563-0.563-0.774c-0.353-0.213-0.847-0.213-1.198-0.071c0-0.07,0-0.07,0-0.142
			c-0.072-0.774-0.777-1.48-1.905-2.185c-0.846-0.494-1.761-1.199-1.903-1.833c-0.07-0.211,0-0.423,0.211-0.635
			C15.499,18.715,15.499,18.575,15.43,18.504z M14.724,19.492C14.724,19.492,14.724,19.561,14.724,19.492
			c0.211,1.057,1.551,1.903,2.115,2.255c0.987,0.564,1.621,1.199,1.692,1.834c0.071,0.281-0.071,0.563-0.142,0.706l-0.07,0.068
			c-0.281-0.21-1.057-0.774-2.889-2.043c-0.777-0.564-1.2-1.128-1.2-1.692C14.301,20.196,14.512,19.844,14.724,19.492z
			 M13.877,20.196c0,0.14-0.07,0.282-0.07,0.423c0,0.422,0.142,0.775,0.422,1.127c-0.563-0.07-1.197,0.071-1.551,0.212
			C13.103,21.395,13.455,20.759,13.877,20.196z M12.327,22.734c0.07,0.352,0.211,0.916,0.564,1.41c-0.423-0.07-0.846,0-1.198,0.21
			c-0.141,0.07-0.282,0.141-0.353,0.283C11.623,23.931,11.976,23.368,12.327,22.734z M11.903,24.778
			c0.494-0.282,1.13-0.211,1.905,0.07l0.352,0.141c1.833,0.846,2.608,1.271,2.961,1.411l0,0c-0.07,0.14-0.282,0.421-0.564,0.492
			c-0.564,0.212-1.409,0.071-2.397-0.562c-0.493-0.283-1.55-0.847-2.396-0.847c-0.211,0-0.352,0-0.564,0.071c0,0,0,0-0.07,0
			C11.34,25.342,11.552,24.989,11.903,24.778z M10.494,26.611c0,0.069,0.07,0.069,0.141,0.141c0.143,0,0.212-0.071,0.282-0.141
			c0.071-0.211,0.212-0.423,0.423-0.493c0.636-0.214,1.763,0.212,2.538,0.703c0.846,0.494,1.552,0.706,2.115,0.706
			c0.283,0,0.493-0.07,0.705-0.141c0.07,0,0.07-0.071,0.142-0.071c0,0.424,0.282,0.776,0.635,0.987
			c0.211,0.141,0.423,0.141,0.633,0.141c0.212,0,0.353-0.07,0.495-0.141c0,0.141,0,0.211,0.07,0.353
			c0.142,0.422,0.424,0.704,0.917,0.917l10.01,4.792L18.53,33.521c-0.563-0.071-0.986,0.068-1.269,0.35
			c-0.071,0.072-0.142,0.143-0.211,0.284c-0.212-0.284-0.565-0.494-0.987-0.494c-0.424,0-0.846,0.21-1.058,0.564l-0.071-0.07
			c-0.493-0.633-1.41-0.917-2.749-0.917c-0.988,0-2.115-0.141-2.537-0.706c-0.141-0.209-0.212-0.421-0.141-0.633
			c0-0.141-0.071-0.212-0.141-0.283c-0.071,0-0.142,0-0.212,0C9.437,29.923,9.859,28.23,10.494,26.611z M16.838,35v0.14v2.608v0.145
			c0,0.42-0.353,0.773-0.775,0.773c-0.424,0-0.776-0.353-0.776-0.773V35c0-0.423,0.352-0.776,0.776-0.776
			C16.556,34.224,16.838,34.577,16.838,35z M11.128,37.96l0.423-0.068c2.044-0.145,2.89-0.213,3.243-0.284v0.07
			c0,0.213-0.071,0.423-0.212,0.634c-0.353,0.495-1.199,0.704-2.396,0.704c-0.634,0-2.256,0.071-2.961,0.847l0,0
			c-0.071-0.353,0-0.776,0.212-1.198C9.719,38.313,10.282,38.029,11.128,37.96z M9.013,36.409c0.283-0.352,1.059-1.128,1.975-1.057
			l3.807,0.353v1.411l-3.243,0.282c-0.07,0-0.141,0-0.212,0s-0.071,0-0.142,0h-0.14C10.071,37.537,9.295,36.763,9.013,36.409z
			 M11.34,34.928c-0.917-0.071-1.552-0.351-1.903-0.845c-0.212-0.352-0.212-0.773-0.212-1.2l0,0
			c0.634,0.777,2.256,0.848,2.961,0.848c1.198,0,1.973,0.211,2.396,0.706c0.212,0.21,0.212,0.491,0.212,0.703v0.07
			C14.441,35.14,13.525,35.07,11.34,34.928z M8.874,33.871c0.07,0.143,0.07,0.284,0.21,0.423C9.295,34.647,9.579,34.928,10,35.07
			c-0.563,0.211-0.988,0.635-1.198,0.916C8.732,35.281,8.803,34.577,8.874,33.871z M8.874,39.017
			c-0.071-0.704-0.071-1.408-0.142-2.113c0.211,0.28,0.635,0.705,1.198,0.917c-0.422,0.208-0.705,0.421-0.917,0.772
			C8.943,38.736,8.874,38.875,8.874,39.017z M10.917,46.28c-0.069-0.144-0.139-0.213-0.282-0.144c-0.07,0-0.141,0.072-0.141,0.144
			c-0.635-1.623-1.057-3.316-1.34-5.077c0.071,0,0.071,0,0.141,0h0.071c0.141-0.069,0.212-0.142,0.141-0.28
			c-0.071-0.284,0-0.498,0.141-0.637c0.422-0.495,1.62-0.704,2.537-0.704c1.339,0,2.255-0.283,2.749-0.917
			c0-0.072,0.071-0.072,0.071-0.14c0.212,0.349,0.634,0.562,1.058,0.562c0.422,0,0.775-0.213,0.987-0.495
			c0.07,0.072,0.14,0.214,0.211,0.281c0.282,0.213,0.634,0.356,1.057,0.356c0.07,0,0.141,0,0.212,0l4.02-0.281
			c0.139,0.067,0.28,0.209,0.35,0.281c0.565,0.352,1.199,0.775,1.623,1.621l-5.006,2.394c-0.494,0.213-0.775,0.566-0.916,0.919
			c0.07,0.07,0.07,0.141,0.07,0.282c-0.07,0-0.141-0.071-0.211-0.071c-0.353-0.071-0.634-0.071-0.986,0.143
			c-0.283,0.139-0.494,0.419-0.564,0.775c0,0.067,0,0.139-0.07,0.209c-0.071,0-0.071-0.07-0.142-0.07
			c-0.705-0.281-1.691-0.072-2.819,0.565c-0.845,0.494-1.901,0.917-2.538,0.704C11.128,46.634,10.987,46.492,10.917,46.28z
			 M11.198,47.195c0.988,0.353,2.397-0.423,2.961-0.703c0.988-0.565,1.833-0.776,2.397-0.565c0.282,0.141,0.494,0.354,0.564,0.493
			l0,0c-0.353,0.143-1.197,0.563-3.171,1.479c-0.846,0.423-1.552,0.495-2.046,0.212C11.552,47.899,11.34,47.548,11.198,47.195
			L11.198,47.195z M11.34,48.251c0.142,0.071,0.212,0.213,0.353,0.285c0.283,0.139,0.634,0.209,0.986,0.209c0.07,0,0.142,0,0.211,0
			c-0.353,0.494-0.564,1.058-0.635,1.41C11.976,49.523,11.623,48.886,11.34,48.251z M13.877,52.626
			c-0.423-0.567-0.774-1.131-1.128-1.763c0.283,0.067,0.705,0.209,1.2,0.209c0.142,0,0.21,0,0.352,0
			c-0.282,0.355-0.424,0.775-0.424,1.128C13.808,52.343,13.877,52.482,13.877,52.626z M14.724,53.326
			c-0.212-0.28-0.422-0.7-0.422-1.126c0-0.565,0.351-1.057,1.058-1.623l0.352-0.284c1.692-1.123,2.396-1.618,2.678-1.898
			l0.071,0.069c0.071,0.142,0.142,0.422,0.142,0.706c-0.071,0.633-0.634,1.269-1.692,1.832
			C16.275,51.428,14.935,52.269,14.724,53.326L14.724,53.326z M19.306,57.911c-0.071-0.072-0.211-0.072-0.354,0
			c-0.07,0.067-0.07,0.067-0.07,0.142c-1.339-1.131-2.538-2.329-3.665-3.666c0.07,0,0.141,0,0.141-0.071
			c0.071-0.071,0.071-0.21,0-0.352c-0.141-0.214-0.211-0.424-0.211-0.638c0.14-0.633,1.056-1.406,1.903-1.831
			c1.198-0.632,1.833-1.41,1.902-2.184c0-0.072,0-0.072,0-0.142c0.143,0.069,0.354,0.142,0.564,0.142
			c0.212,0,0.424-0.072,0.634-0.142c0.353-0.214,0.564-0.564,0.635-0.989c0.071,0.07,0.21,0.07,0.353,0.142c0.071,0,0.212,0,0.282,0
			c0.352,0,0.635-0.142,0.988-0.351l3.523-2.397l0,0c0.21,1.06,0.565,1.902,1.199,2.677l-1.833,2.68
			c-0.283,0.423-0.353,0.848-0.283,1.27c0,0.143,0.072,0.212,0.142,0.351c-0.354,0.075-0.776,0.284-0.988,0.637
			c-0.14,0.28-0.21,0.635-0.14,0.986c0,0.07,0.07,0.142,0.07,0.213c-0.07,0-0.07,0-0.141,0c-0.775,0.068-1.48,0.774-2.186,1.901
			c-0.493,0.848-1.197,1.765-1.832,1.904C19.729,58.192,19.517,58.121,19.306,57.911z M20.011,58.615
			c0.985-0.214,1.903-1.552,2.185-2.116c0.564-0.983,1.2-1.621,1.833-1.689c0.283-0.073,0.564,0.068,0.705,0.138l0.07,0.072
			c-0.21,0.282-0.774,1.06-2.043,2.892c-0.564,0.772-1.128,1.195-1.691,1.195C20.715,59.039,20.293,58.826,20.011,58.615
			L20.011,58.615z M20.715,59.46c0.142,0,0.281,0.072,0.423,0.072l0,0c0.423,0,0.776-0.14,1.129-0.426
			c-0.072,0.634,0.071,1.201,0.211,1.553C21.843,60.236,21.279,59.885,20.715,59.46z M23.042,58.33l2.186-3.099l1.27,0.703
			l-1.41,2.961c0,0.072-0.072,0.144-0.072,0.211c0,0.07-0.07,0.07-0.07,0.142l-0.071,0.145c-0.423,0.913-1.479,1.126-1.903,1.196
			C22.83,60.166,22.478,59.106,23.042,58.33z M23.183,61.012c0.353-0.07,0.916-0.215,1.41-0.563c-0.07,0.421,0,0.847,0.21,1.196
			c0.07,0.142,0.142,0.283,0.284,0.354C24.451,61.716,23.818,61.363,23.183,61.012z M25.227,61.438
			c-0.282-0.496-0.212-1.13,0.141-1.905l0.142-0.355c0.845-1.831,1.269-2.605,1.409-2.958l0,0c0.142,0.069,0.423,0.28,0.493,0.564
			c0.211,0.563,0.071,1.409-0.562,2.394c-0.354,0.563-1.059,2.046-0.708,2.963c0,0,0,0,0,0.074
			C25.792,62,25.438,61.787,25.227,61.438z M32.418,63.831c-0.141,0-0.212,0.072-0.282,0.142c0,0.07,0,0.14,0,0.214
			c-1.763-0.283-3.454-0.778-5.076-1.344c0.07,0,0.07-0.067,0.141-0.138c0-0.142-0.071-0.212-0.141-0.283
			c-0.21-0.072-0.423-0.208-0.494-0.422c-0.211-0.637,0.212-1.764,0.705-2.54c0.707-1.197,0.917-2.114,0.565-2.818
			c0-0.07-0.072-0.07-0.072-0.143c0.423,0,0.775-0.28,0.987-0.633c0.212-0.351,0.212-0.777,0.071-1.13c0.141,0,0.212,0,0.352-0.072
			c0.423-0.138,0.706-0.42,0.918-0.914l0.353-0.773c0.141,0.141,0.35,0.283,0.563,0.35v0.848c0,0.07,0,0.07,0,0.142
			c-0.704,0.281-1.48,0.846-1.833,1.973c-0.07,0.211-0.14,0.563-0.14,0.986c-0.071,0.637-0.141,1.482-0.565,1.693
			c-0.141,0.071-0.21,0.071-0.421,0c-0.142-0.072-0.211-0.072-0.211-0.072c-0.143-0.069-0.283,0-0.283,0.144
			c-0.07,0.138,0,0.282,0.141,0.282c0.071,0.071,0.143,0.071,0.284,0.071c0.069,0,0.21,0.067,0.35,0.067
			c-0.563,0-1.057,0.493-1.057,1.129c0,0.634,0.494,1.127,1.128,1.127h5.287c-0.07,0.848-0.21,1.692-0.634,2.043
			C32.912,63.831,32.7,63.903,32.418,63.831z M33.334,64.112C33.334,64.043,33.404,64.043,33.334,64.112
			c0.634-0.565,0.845-1.619,0.845-2.396h1.198c0,0.143,0,0.213,0,0.356c-0.07,0.914-0.353,1.547-0.845,1.9
			C34.179,64.112,33.686,64.112,33.334,64.112z M34.321,64.468c0.142-0.072,0.282-0.072,0.424-0.213
			c0.351-0.212,0.632-0.496,0.774-0.918c0.21,0.566,0.633,0.986,0.917,1.199C35.73,64.604,35.025,64.536,34.321,64.468z
			 M36.929,64.323c-0.353-0.28-1.127-1.057-1.058-1.974l0.071-0.634h1.974v0.143c0,0.07,0,0.142,0,0.214c0,0.067,0,0.067,0,0.142
			v0.136C38.057,63.267,37.21,64.043,36.929,64.323z M37.352,64.604c0.282-0.209,0.706-0.632,0.918-1.196
			c0.21,0.423,0.422,0.704,0.775,0.915c0.14,0.072,0.281,0.145,0.422,0.214C38.762,64.536,38.057,64.604,37.352,64.604z
			 M39.325,63.903c-0.493-0.284-0.775-0.849-0.845-1.689l-0.07-0.427v-0.071h1.197c0.07,0.777,0.213,1.903,0.846,2.396l0,0
			C40.101,64.112,39.678,64.112,39.325,63.903z M47.222,61.929c-0.071,0.211-0.213,0.353-0.494,0.421
			c-0.141,0.072-0.211,0.144-0.141,0.283c0,0.072,0.07,0.143,0.141,0.143c-1.621,0.633-3.313,1.056-5.076,1.337
			c0-0.069,0.07-0.14,0-0.209c-0.07-0.145-0.142-0.211-0.282-0.145c-0.282,0.072-0.494,0-0.635-0.14
			c-0.422-0.353-0.635-1.197-0.635-2.043h5.358c0.634,0,1.128-0.492,1.128-1.127l0,0c0-0.564-0.494-1.057-1.057-1.128
			c0.139,0,0.281-0.073,0.352-0.073c0.07,0,0.141-0.071,0.281-0.071c0.142-0.07,0.212-0.209,0.142-0.281
			c-0.071-0.139-0.211-0.212-0.281-0.139c0,0-0.071,0-0.212,0.069c-0.142,0.069-0.281,0-0.423,0
			c-0.351-0.211-0.493-1.054-0.563-1.69c-0.07-0.353-0.07-0.706-0.142-0.988c-0.353-1.059-1.128-1.621-1.833-1.974
			c0-0.068,0.071-0.068,0.071-0.143v-0.844c0.282,0,0.493-0.142,0.634-0.211l0.282,0.634c0.212,0.495,0.564,0.776,0.917,0.916
			c0.14,0.07,0.21,0.07,0.352,0.07c0,0.067-0.07,0.14-0.07,0.213c-0.072,0.352-0.072,0.634,0.14,0.985
			c0.211,0.353,0.634,0.563,0.986,0.635c0,0.069-0.07,0.069-0.07,0.142c-0.282,0.703-0.07,1.691,0.563,2.821
			C47.009,60.236,47.433,61.363,47.222,61.929z M47.643,62.14L47.643,62.14c0.354-0.986-0.353-2.466-0.705-3.033
			c-0.563-0.985-0.775-1.832-0.563-2.396c0.141-0.28,0.352-0.491,0.493-0.563l0,0c0.14,0.352,0.564,1.198,1.481,3.174
			c0.422,0.845,0.492,1.549,0.21,2.042C48.35,61.787,47.997,62,47.643,62.14z M48.701,62c0.071-0.142,0.211-0.213,0.282-0.354
			c0.211-0.35,0.283-0.775,0.211-1.196c0.495,0.348,1.057,0.492,1.411,0.635C50.041,61.363,49.407,61.716,48.701,62z M50.887,60.589
			c-0.425-0.07-1.48-0.353-1.904-1.196l-1.62-3.458l1.268-0.703l1.904,2.68c0.07,0.067,0.07,0.142,0.141,0.21
			c0,0.071,0.069,0.071,0.069,0.142l0.072,0.139C51.31,59.106,51.027,60.166,50.887,60.589z M51.38,60.589
			c0.142-0.353,0.283-0.915,0.212-1.482c0.352,0.286,0.773,0.426,1.127,0.426l0,0c0.141,0,0.283,0,0.424-0.072
			C52.578,59.885,51.944,60.236,51.38,60.589z M52.72,59.039c-0.564,0-1.057-0.355-1.622-1.061l-0.211-0.35
			c-1.127-1.694-1.622-2.397-1.904-2.682l0.071-0.069c0.14-0.068,0.423-0.142,0.706-0.142c0.633,0.073,1.267,0.636,1.833,1.693
			c0.352,0.563,1.199,1.972,2.185,2.113c0,0,0,0,0.071,0C53.495,58.826,53.144,59.039,52.72,59.039z M54.905,58.121
			c0-0.068,0-0.143-0.07-0.143c-0.071-0.067-0.212-0.067-0.353,0c-0.21,0.143-0.422,0.214-0.633,0.214
			c-0.635-0.14-1.411-1.057-1.833-1.904c-0.635-1.199-1.41-1.833-2.185-1.901c-0.07,0-0.07,0-0.141,0
			c0-0.071,0.071-0.143,0.071-0.213c0.07-0.352,0.07-0.634-0.143-0.986c-0.21-0.353-0.563-0.562-0.986-0.637
			c0.07-0.068,0.07-0.208,0.142-0.351c0.07-0.422,0-0.847-0.354-1.27l-1.762-2.608c0.633-0.706,0.986-1.62,1.199-2.681l3.524,2.397
			c0.353,0.212,0.706,0.355,0.986,0.355c0.071,0,0.212,0,0.283,0c0.142,0,0.212-0.072,0.354-0.144c0,0.071,0,0.144,0,0.213
			c0.07,0.353,0.282,0.563,0.563,0.775c0.212,0.14,0.425,0.14,0.635,0.14c0.211,0,0.353-0.067,0.563-0.14c0,0.072,0,0.072,0,0.14
			c0.071,0.776,0.776,1.484,1.904,2.186c0.846,0.494,1.762,1.199,1.904,1.834c0.07,0.212,0,0.424-0.212,0.633
			c-0.069,0.074-0.069,0.213,0,0.355c0.071,0.068,0.071,0.068,0.141,0.068C57.443,55.724,56.244,56.993,54.905,58.121z"/>
	</g>
</g>
<g>
	<path fill="#C32033" d="M79.864,18.46h4.14v9.2c0,1.355,0.92,2.428,2.76,3.22c0.434,0.103,0.817,0.153,1.15,0.153
		c1.329,0,1.993-0.945,1.993-2.836V18.46h2.684v9.813c0,3.424-1.38,5.136-4.14,5.136h-0.383c-1.495,0-2.85-0.537-4.063-1.61v1.457
		h-3.986c-0.103,0-0.153-0.051-0.153-0.153v-0.23c0.92-0.332,1.38-0.792,1.38-1.38c0.051,0,0.077-0.153,0.077-0.46V20.606
		c0-0.933-0.486-1.521-1.457-1.763V18.46z"/>
	<path fill="#C32033" d="M95.14,18.748h4.217v4.676l5.52-4.676h3.833c-2.402,2.096-3.603,3.169-3.603,3.22
		c1.84,0.933,2.76,2.185,2.76,3.757v7.82h-2.76v-7.36c0-0.933-0.741-1.699-2.224-2.3c-1.98,1.674-3.156,2.722-3.526,3.143v6.517
		h-2.76v-12.65c0-0.843-0.46-1.431-1.38-1.763H95.14V18.748z"/>
	<path fill="#C32033" d="M113.214,18.46c3.437,0,5.156,1.661,5.156,4.983v10.158h-2.722v-9.717c0-1.316-0.262-2.16-0.786-2.53
		c-0.575-0.243-1.067-0.364-1.476-0.364h-0.613c-0.869,0-1.802,0.352-2.798,1.054h-0.096v-2.625
		C110.773,18.779,111.885,18.46,113.214,18.46z"/>
	<path fill="#C32033" d="M125.48,18.326h0.537c2.67,0,4.459,1.252,5.367,3.757c0.358,1.035,0.537,2.21,0.537,3.526v0.383
		c0,5.009-2.096,7.514-6.287,7.514c-1.227,0-2.581-0.435-4.063-1.303v-3.067h0.077c1.111,1.227,2.415,1.84,3.91,1.84h0.46
		c1.367,0,2.338-0.843,2.914-2.53c0.153-0.805,0.23-1.469,0.23-1.993v-1.15c0-2.542-0.92-4.025-2.76-4.446h-1.073
		c-1.176,0-2.402,0.588-3.68,1.763h-0.077v-2.914C122.797,18.786,124.101,18.326,125.48,18.326z"/>
	<path fill="#C32033" d="M121.551,15.259h10.063v2.089h-11.347L121.551,15.259z"/>
	<path fill="#C32033" d="M142.078,18.402c2.057,0,3.412,0.895,4.063,2.684c0.204,0.665,0.307,1.584,0.307,2.76v9.583h-2.76V23.232
		c0-1.533-0.639-2.3-1.917-2.3h-0.383c-1.457,0-2.606,0.869-3.45,2.606c-0.051,0.281-0.077,0.511-0.077,0.69v9.2h-2.76V20.625
		c0-0.715-0.486-1.252-1.457-1.61v-0.383h4.217v1.38C139.024,18.939,140.43,18.402,142.078,18.402z"/>
	<path fill="#C32033" d="M154.115,18.709h0.537c0.511,0,1.022,0.051,1.533,0.153v2.53l-0.537-0.153l-0.537-0.039
		c-1.482,0.026-2.23,0.473-2.243,1.342c-0.013,0.869,0.428,1.303,1.322,1.303h1.15c0.115,0,0.473,0.792,1.073,2.376
		c-0.639-0.051-0.971-0.077-0.997-0.077c-1.7,0.141-2.735,0.971-3.105,2.492v0.211c0.077,1.572,1.06,2.357,2.952,2.357h3.296v-12.42
		h2.76v2.224v12.65h-6.133c-3.68,0-5.52-1.584-5.52-4.753c0-1.572,0.613-2.772,1.84-3.604c-1.073-0.83-1.61-1.674-1.61-2.53v-0.613
		c0-1.534,0.945-2.632,2.836-3.297C153.246,18.76,153.706,18.709,154.115,18.709z"/>
	<path fill="#C32033" d="M167.167,18.46c3.437,0,5.156,1.661,5.156,4.983v10.158h-2.722v-9.717c0-1.316-0.262-2.16-0.786-2.53
		c-0.575-0.243-1.067-0.364-1.476-0.364h-0.613c-0.869,0-1.802,0.352-2.798,1.054h-0.096v-2.625
		C164.726,18.779,165.838,18.46,167.167,18.46z"/>
	<path fill="#C32033" d="M181.638,18.421c2.888,0,4.779,0.997,5.673,2.99c0.153,0.549,0.23,1.086,0.23,1.61v8.587
		c0,0.665,0.333,1.15,0.997,1.457v0.383h-2.3c-0.792,0-1.252-0.741-1.38-2.223v-5.29c-0.92,0.345-2.734,0.677-5.443,0.997
		c-1.176,0.371-1.763,1.137-1.763,2.3c0,0.946,0.511,1.559,1.533,1.84c0.217,0,0.499,0.025,0.843,0.077
		c0.831-0.051,1.699-0.179,2.607-0.383v2.606c-0.665,0.103-1.534,0.179-2.607,0.23c-2.798,0-4.434-1.124-4.907-3.374
		c-0.051-0.332-0.077-0.664-0.077-0.997v-0.46c0-2.019,1.125-3.399,3.374-4.14c0.958-0.204,2.645-0.434,5.06-0.69
		c0.869-0.293,1.303-0.677,1.303-1.15v-0.23c0-0.894-0.946-1.431-2.837-1.61h-0.383c-1.801,0-2.926,0.613-3.373,1.84
		c-0.064,0.358-0.141,0.537-0.23,0.537h-2.607c0-1.022,0.511-2.121,1.534-3.296C178.226,18.958,179.811,18.421,181.638,18.421z"/>
	<path fill="#C32033" d="M181.523,13.151h2.76v1.38h7.897v0.077l-1.303,2.223h-9.354V13.151z"/>
	<path fill="#C32033" d="M194.805,18.709h0.537c0.511,0,1.022,0.051,1.533,0.153v2.53l-0.537-0.153l-0.537-0.039
		c-1.482,0.026-2.23,0.473-2.243,1.342c-0.013,0.869,0.428,1.303,1.322,1.303h1.15c0.115,0,0.473,0.792,1.073,2.376
		c-0.639-0.051-0.971-0.077-0.997-0.077c-1.7,0.141-2.735,0.971-3.105,2.492v0.211c0.077,1.572,1.06,2.357,2.952,2.357h3.296v-12.42
		h2.76v2.224v12.65h-6.133c-3.68,0-5.52-1.584-5.52-4.753c0-1.572,0.613-2.772,1.84-3.604c-1.073-0.83-1.61-1.674-1.61-2.53v-0.613
		c0-1.534,0.945-2.632,2.836-3.297C193.937,18.76,194.396,18.709,194.805,18.709z"/>
	<path fill="#C32033" d="M210.368,18.441c2.67,0,4.562,0.665,5.673,1.993v2.913h-0.077c-1.406-1.584-3.143-2.376-5.213-2.376h-0.383
		c-1.329,0-2.198,0.307-2.606,0.92c0,0.409,1.84,0.946,5.52,1.61c2.351,0.895,3.526,2.403,3.526,4.523
		c0,2.582-1.329,4.268-3.986,5.06c-1.022,0.307-2.224,0.46-3.604,0.46h-0.383c-0.563,0-1.61-0.051-3.144-0.153l-0.077-0.153v-7.207
		h2.607c0.102,0.013,0.153,0.064,0.153,0.153v4.983h1.227c2.083,0,3.488-0.588,4.217-1.763c0.153-0.46,0.23-0.844,0.23-1.15v-0.383
		c0-1.354-1.891-2.3-5.673-2.836c-2.198-0.511-3.297-1.559-3.297-3.144c0-1.61,1.354-2.734,4.063-3.373
		C209.436,18.518,209.844,18.492,210.368,18.441z"/>
	<path fill="#C32033" d="M223.076,18.441h1.15c1.84,0,3.38,0.543,4.619,1.629v2.875c-1.393-1.342-2.836-2.012-4.332-2.012h-0.958
		c-1.431,0-2.23,0.543-2.396,1.629v0.096c0,0.575,1.405,1.054,4.216,1.438c2.696,0.703,4.044,2.275,4.044,4.715
		c0,2.108-1.022,3.578-3.067,4.408c-0.831,0.256-1.636,0.383-2.415,0.383h-0.575c-1.712,0-3.278-0.447-4.696-1.342v-3.163
		c1.277,1.406,2.875,2.108,4.792,2.108c2.185,0,3.277-0.83,3.277-2.492c0-1.393-1.284-2.223-3.853-2.492
		c-2.939-0.447-4.408-1.699-4.408-3.756V22.37C218.476,20.21,220.009,18.901,223.076,18.441z"/>
	<path fill="#C32033" d="M235.476,18.441h1.15c1.84,0,3.38,0.543,4.619,1.629v2.875c-1.393-1.342-2.836-2.012-4.332-2.012h-0.958
		c-1.431,0-2.23,0.543-2.396,1.629v0.096c0,0.575,1.405,1.054,4.216,1.438c2.696,0.703,4.044,2.275,4.044,4.715
		c0,2.108-1.022,3.578-3.067,4.408c-0.831,0.256-1.636,0.383-2.415,0.383h-0.575c-1.712,0-3.278-0.447-4.696-1.342v-3.163
		c1.277,1.406,2.875,2.108,4.792,2.108c2.185,0,3.277-0.83,3.277-2.492c0-1.393-1.284-2.223-3.853-2.492
		c-2.939-0.447-4.408-1.699-4.408-3.756V22.37C230.876,20.21,232.409,18.901,235.476,18.441z"/>
	<path fill="#C32033" d="M243.238,18.46h4.14v9.2c0,1.355,0.92,2.428,2.76,3.22c0.434,0.103,0.817,0.153,1.15,0.153
		c1.329,0,1.993-0.945,1.993-2.836V18.46h2.684v9.813c0,3.424-1.38,5.136-4.14,5.136h-0.383c-1.495,0-2.85-0.537-4.063-1.61v1.457
		h-3.986c-0.103,0-0.153-0.051-0.153-0.153v-0.23c0.92-0.332,1.38-0.792,1.38-1.38c0.051,0,0.077-0.153,0.077-0.46V20.606
		c0-0.933-0.486-1.521-1.457-1.763V18.46z"/>
	<path fill="#C32033" d="M267.81,17.636h2.856v0.537c0,0.473-0.256,0.99-0.767,1.553c1.086,0.792,1.629,1.929,1.629,3.412
		l-0.02,10.465h-2.702V23.213c0-1.495-0.997-2.3-2.99-2.415l-0.556,0.019c-1.814,0.103-2.722,0.875-2.722,2.319v2.089
		c0.384-0.357,0.767-0.537,1.15-0.537h2.491v2.013l-0.076,0.537h-2.108c-0.844,0-1.329,0.518-1.457,1.552v4.811h-2.798v-9.449
		c0-2.185,0.491-3.609,1.476-4.274c1.214-0.984,2.632-1.476,4.255-1.476c0.907-0.013,1.553,0.07,1.936,0.249
		C267.727,18.435,267.861,18.096,267.81,17.636z"/>
	<path fill="#C32033" d="M276.723,18.46c3.438,0,5.156,1.661,5.156,4.983v10.158h-2.722v-9.717c0-1.316-0.263-2.16-0.786-2.53
		c-0.575-0.243-1.067-0.364-1.476-0.364h-0.613c-0.869,0-1.802,0.352-2.799,1.054h-0.096v-2.625
		C274.282,18.779,275.394,18.46,276.723,18.46z"/>
	<path fill="#C32033" d="M294.663,17.655l2.223,0.019v0.614c0,0.792-0.325,1.45-0.978,1.974c0.396,0.601,0.595,1.438,0.595,2.511
		v8.586c0,0.78,0.357,1.393,1.073,1.84v0.23h-2.377c-0.869-0.205-1.303-0.818-1.303-1.84v-5.673
		c-1.048,0.358-2.889,0.69-5.521,0.997c-1.176,0.383-1.764,1.15-1.764,2.3c0,1.278,0.818,1.917,2.454,1.917
		c0.485,0,1.328-0.127,2.529-0.383v2.607c-0.664,0.102-1.533,0.179-2.606,0.23c-2.377,0-3.936-0.843-4.677-2.53
		c-0.204-0.664-0.307-1.303-0.307-1.917v-0.077c0-2.428,1.304-3.961,3.91-4.6c3.73-0.357,5.597-0.715,5.597-1.073
		c0.153-0.255,0.23-0.46,0.23-0.613v-0.307c-0.269-1.022-1.266-1.533-2.99-1.533h-0.23c-1.789,0-2.913,0.613-3.373,1.84
		c-0.051,0.358-0.128,0.537-0.23,0.537h-2.529c0-2.083,1.277-3.616,3.833-4.6c0.702-0.153,1.521-0.255,2.453-0.307
		c1.163-0.038,2.243,0.122,3.239,0.479C294.478,18.588,294.727,18.179,294.663,17.655z"/>
	<path fill="#C32033" d="M305.434,18.364c0,0.051,0.613,0.588,1.84,1.61c0-0.039,0.485-0.473,1.456-1.303h2.53v13.11
		c0,0.409,0.332,0.869,0.997,1.38v0.153c0,0.103-0.052,0.153-0.153,0.153h-1.38c-1.035,0-1.675-0.23-1.917-0.69
		c-0.205-0.511-0.307-0.945-0.307-1.303v-9.43l-1.227,1.073h-0.077l-2.376-1.917c-0.984,0.256-1.904,1.099-2.761,2.53
		c-0.307,0.881-0.46,1.725-0.46,2.53c0,2.198,0.945,3.731,2.837,4.6c0.485,0.103,0.869,0.153,1.15,0.153h0.229
		c0.563,0,1.048-0.051,1.457-0.153v2.53l-1.533,0.153c-3.387,0-5.584-1.712-6.594-5.137c-0.153-0.817-0.229-1.61-0.229-2.376
		c0-3.552,1.84-6.031,5.52-7.437C304.974,18.441,305.306,18.364,305.434,18.364z"/>
	<path fill="#C32033" d="M318.639,18.441h1.15c1.84,0,3.38,0.543,4.619,1.629v2.875c-1.393-1.342-2.837-2.012-4.332-2.012h-0.958
		c-1.431,0-2.229,0.543-2.396,1.629v0.096c0,0.575,1.405,1.054,4.217,1.438c2.695,0.703,4.044,2.275,4.044,4.715
		c0,2.108-1.022,3.578-3.066,4.408c-0.831,0.256-1.636,0.383-2.415,0.383h-0.575c-1.713,0-3.277-0.447-4.696-1.342v-3.163
		c1.278,1.406,2.875,2.108,4.792,2.108c2.185,0,3.277-0.83,3.277-2.492c0-1.393-1.284-2.223-3.853-2.492
		c-2.938-0.447-4.408-1.699-4.408-3.756V22.37C314.039,20.21,315.572,18.901,318.639,18.441z"/>
	<path fill="#C32033" d="M322.261,14.052h3.527l-1.304,2.223h-0.92c-0.716,0-1.073,0.281-1.073,0.843v0.46h-2.76v-0.613
		c0-1.546,0.563-2.485,1.687-2.817C321.647,14.097,321.929,14.064,322.261,14.052z"/>
</g>
<g>
	<path fill="#C32033" d="M85.191,45.707c2.403,0.117,3.955,0.916,4.655,2.397c0.268,0.537,0.385,1.377,0.35,2.52v8.837h-1.155
		l-0.018-9.327c0.07-2.042-1.271-3.185-4.025-3.43c-1.528,0.012-2.707,0.461-3.535,1.348c-0.618,0.642-0.904,1.552-0.857,2.73v2.03
		c0.537-0.606,1.254-0.916,2.153-0.927h1.645v1.208h-1.873c-1.167,0.21-1.803,0.723-1.908,1.54c-0.093,0.105-0.128,0.52-0.105,1.243
		v3.587h-0.998v-9.275c0-2.03,0.98-3.406,2.94-4.13C83.208,45.823,84.118,45.707,85.191,45.707z"/>
	<path fill="#C32033" d="M98.771,45.707c2.566,0,4.252,0.974,5.058,2.922c0.105,0.397,0.157,0.765,0.157,1.103v4.042
		c-0.07,1.645,0.073,2.838,0.429,3.579c0.355,0.741,1.134,1.251,2.336,1.531c1.878,0.012,2.881-0.805,3.01-2.45V46.021h1.103v13.44
		v0.158h-1.12v-0.735c-1.027,0.7-2.339,0.956-3.938,0.77c-2.019-0.583-2.946-2.059-2.783-4.428v-5.408
		c-0.128-1.015-0.592-1.805-1.391-2.371c-0.799-0.566-1.771-0.831-2.914-0.796c-1.447,0.07-2.835,0.718-4.165,1.943l-0.018,9.03
		c0.082,0.98,0.49,1.5,1.225,1.558v0.35h-2.135v-9.713c0-0.408-0.21-0.857-0.63-1.347v-0.315
		C95.038,46.523,96.963,45.707,98.771,45.707z"/>
	<path fill="#C32033" d="M112.753,55.944h1.243v0.893h3.762l-1.067,1.068h-3.938V55.944z M112.806,48.909h1.208v0.875h3.71
		l-1.05,1.05h-3.867V48.909z"/>
	<path fill="#C32033" d="M123.043,45.847h0.473c2.333,0,3.896,1.144,4.69,3.43c0.315,0.945,0.472,2.019,0.472,3.22v0.35
		c0,4.573-1.837,6.86-5.512,6.86c-1.074,0-2.258-0.379-3.553-1.138l0.018-1.12c1.202,0.934,2.578,1.371,4.13,1.313
		c1.435-0.222,2.508-1.003,3.22-2.345c0.396-1.143,0.606-2.397,0.63-3.762l-0.018-0.28c-0.012-3.103-1.219-4.964-3.623-5.583
		l-0.175-0.018c-1.599-0.198-2.993,0.333-4.183,1.593v-1.26C120.687,46.267,121.83,45.847,123.043,45.847z"/>
	<path fill="#C32033" d="M120.191,43.099h8.522v1.348h-9.8L120.191,43.099z"/>
	<path fill="#C32033" d="M138.321,45.724c1.878,0,3.115,0.817,3.71,2.45c0.187,0.607,0.28,1.447,0.28,2.52v8.75h-1.015l0.018-9.555
		c-0.047-1.843-1.003-2.881-2.87-3.115h-0.175c-1.773,0.105-3.529,0.77-5.268,1.995l-0.035,10.675h-1.015v-11.69
		c0-0.653-0.444-1.143-1.33-1.47v-0.35h2.345l-0.018,1.33C135.025,46.238,136.816,45.724,138.321,45.724z"/>
	<path fill="#C32033" d="M149.73,45.776h0.49c0.466,0,0.933,0.047,1.4,0.14v1.243l-1.05-0.175h-0.245
		c-2.088-0.082-3.2,0.549-3.334,1.89c-0.134,1.342,0.802,2.112,2.809,2.31h1.155l0.473,1.015h-2.065
		c-1.377,0.292-2.205,1.073-2.485,2.345l-0.017,0.298c-0.129,2.229,1.219,3.395,4.042,3.5l4.322-0.018V45.847h1.085v1.68v11.9h-5.6
		c-3.36,0-5.04-1.447-5.04-4.34c0-1.435,0.619-2.531,1.855-3.29c-1.097-0.758-1.645-1.528-1.645-2.31v-0.56
		c0-1.4,0.863-2.403,2.59-3.01C148.937,45.823,149.357,45.776,149.73,45.776z"/>
	<path fill="#C32033" d="M162.855,45.952c3.08,0,4.62,1.586,4.62,4.76l0.035,8.908h-0.98l-0.018-6.703
		c0.14-3.441-0.764-5.39-2.712-5.845c-1.54-0.28-3.115,0.128-4.725,1.225v-1.365C160.476,46.278,161.735,45.952,162.855,45.952z"/>
	<path fill="#C32033" d="M178.833,45.024h1.382v0.49c0,0.432-0.233,0.904-0.7,1.417c1.003,0.724,1.505,1.762,1.505,3.115v7.858
		l-0.018,1.68h-1.05l0.018-9.188c-0.059-2.24-1.406-3.465-4.042-3.675c-2.695,0-4.258,1.202-4.69,3.605v2.012
		c0.175-0.478,0.519-0.758,1.033-0.84h1.68l0.91,0.928l-2.205,0.017c-1.003,0.444-1.476,1.4-1.417,2.87l-0.018,4.288h-1.05v-8.627
		c0-1.995,0.455-3.296,1.365-3.902c1.108-0.898,2.409-1.348,3.903-1.348c0.84-0.012,1.796,0.128,2.87,0.42
		C178.658,46.098,178.833,45.724,178.833,45.024z"/>
	<path fill="#C32033" d="M187.338,45.952c3.08,0,4.62,1.586,4.62,4.76l0.035,8.908h-0.98l-0.018-6.703
		c0.14-3.441-0.764-5.39-2.712-5.845c-1.54-0.28-3.115,0.128-4.725,1.225v-1.365C184.958,46.278,186.218,45.952,187.338,45.952z"/>
	<path fill="#C32033" d="M203.525,44.989h1.522v0.56c0.07,0.502-0.175,0.992-0.735,1.47c0.711,0.793,1.067,1.68,1.067,2.66v8.365
		c0.116,0.654,0.431,1.039,0.945,1.155v0.21h-0.91c-0.665,0.082-0.974-0.286-0.927-1.103v-6.615
		c-1.599,0.992-3.739,1.529-6.422,1.61c-1.82,0.163-2.707,1.032-2.66,2.607c-0.035,1.622,1.021,2.514,3.167,2.677
		c1.236,0.035,2.071-0.082,2.502-0.35v1.103c-0.583,0.094-1.348,0.164-2.292,0.21c-2.088,0-3.459-0.77-4.112-2.31
		c-0.175-0.606-0.263-1.19-0.263-1.75v-0.07c0.035-1.937,1.499-3.033,4.393-3.29c2.59-0.093,4.41-0.583,5.46-1.47
		c0.187-0.245,0.274-0.566,0.263-0.962l-0.053-0.175c-0.607-1.832-1.972-2.765-4.095-2.8l-0.175-0.018
		c-2.485,0.304-4.007,1.295-4.567,2.975l-0.053,0.49h-0.945c0.07-1.901,1.231-3.301,3.482-4.2c0.618-0.14,1.336-0.233,2.153-0.28
		c0.945,0.047,1.896,0.245,2.852,0.595C203.414,46.027,203.548,45.596,203.525,44.989z"/>
	<path fill="#C32033" d="M214.305,45.724c0,0.047,0.542,0.537,1.627,1.47l1.575-1.208h1.96v11.988c0,0.7,0.297,1.12,0.893,1.26
		v0.298h-0.718c-0.711,0.058-1.103-0.228-1.172-0.858V46.739l-2.52,1.732l-1.96-1.383c-1.225,0.129-2.415,0.939-3.57,2.433
		c-0.677,1.354-0.975,2.532-0.893,3.535c-0.035,2.8,1.307,4.649,4.025,5.547c0.361,0.128,0.75,0.19,1.164,0.184
		c0.414-0.005,0.82-0.073,1.216-0.201v0.998h-1.347c-3.01,0-4.958-1.563-5.845-4.69c-0.14-0.747-0.21-1.47-0.21-2.17
		c0-3.243,1.633-5.506,4.9-6.79C213.908,45.794,214.2,45.724,214.305,45.724z"/>
	<path fill="#C32033" d="M226.45,45.619h1.05c1.68,0,3.085,0.496,4.217,1.487v1.575c-0.969-1.167-2.467-1.796-4.498-1.89h-0.21
		c-1.96,0.105-3.162,0.811-3.605,2.118c-0.222,1.108,1.686,1.843,5.723,2.205c2.228,0.63,3.266,1.954,3.115,3.972
		c0,1.925-0.934,3.267-2.8,4.025c-0.759,0.234-1.494,0.35-2.205,0.35h-0.525c-1.563,0-2.993-0.408-4.288-1.225v-1.313
		c1.085,0.945,2.66,1.447,4.725,1.505c2.543-0.315,3.879-1.383,4.007-3.203c0.082-1.89-1.032-2.911-3.342-3.063
		c-3.547-0.315-5.402-1.271-5.565-2.87v-0.087C222.355,47.258,223.755,46.063,226.45,45.619z"/>
	<path fill="#C32033" d="M230.859,42.469h2.188l-0.84,1.19h-0.647c-0.385,0-0.578,0.146-0.578,0.438v0.402h-1.47v-0.49
		c0-0.817,0.304-1.313,0.91-1.488C230.539,42.486,230.685,42.469,230.859,42.469z"/>
	<path fill="#C32033" d="M237.772,59.269v0.21c-0.56,0-1.05,0.003-1.47,0.009c-0.42,0.006-0.656-0.16-0.708-0.499
		c-0.053-0.338-0.073-0.805-0.062-1.4V45.461h1.19v12.25C236.757,58.458,237.107,58.978,237.772,59.269z M241.535,59.269v0.21
		c-0.525,0-0.986,0.003-1.383,0.009s-0.621-0.16-0.674-0.499c-0.052-0.338-0.073-0.805-0.061-1.4V45.461h1.12v12.25
		C240.572,58.458,240.904,58.978,241.535,59.269z"/>
	<path fill="#C32033" d="M250.302,45.812c2.566,0,4.252,0.91,5.057,2.73c0.129,0.502,0.192,0.992,0.192,1.47v7.84
		c0.012,0.852,0.31,1.342,0.893,1.47v0.21h-1.347c-0.409-0.047-0.59-0.245-0.543-0.595v-7.63c-1.05,1.097-2.607,1.762-4.672,1.995
		c-3.104,0.269-4.62,1.178-4.55,2.73c0.012,1.318,0.904,2.211,2.678,2.677c0.303,0.059,0.595,0.064,0.875,0.018
		c0.747,0.035,1.517-0.105,2.31-0.42v1.155c-0.595,0.094-1.371,0.164-2.328,0.21c-2.485,0-3.938-1.026-4.357-3.08
		c-0.047-0.304-0.07-0.607-0.07-0.91v-0.42c0.151-1.015,0.711-1.768,1.68-2.258c0.793-0.385,2.112-0.688,3.955-0.91
		c1.703-0.105,3.203-0.84,4.498-2.205v-0.228c-0.188-1.552-1.505-2.514-3.955-2.888l-0.245,0.018
		c-2.007-0.093-3.535,0.869-4.585,2.888l-0.105,0.612h-0.962c0-0.933,0.455-1.901,1.365-2.905
		C247.275,46.336,248.681,45.812,250.302,45.812z"/>
	<path fill="#C32033" d="M257.021,55.944h1.242v0.893h3.763l-1.067,1.068h-3.938V55.944z M257.074,48.909h1.207v0.875h3.71
		l-1.05,1.05h-3.867V48.909z"/>
	<path fill="#C32033" d="M266.104,59.164v0.21c-0.513,0-0.968,0.003-1.364,0.009c-0.397,0.006-0.619-0.16-0.665-0.499
		c-0.047-0.338-0.064-0.805-0.053-1.4V45.356h1.103v12.25C265.159,58.354,265.485,58.873,266.104,59.164z"/>
	<path fill="#C32033" d="M275.187,45.724c1.879,0,3.115,0.817,3.71,2.45c0.187,0.607,0.28,1.447,0.28,2.52v8.75h-1.015l0.018-9.555
		c-0.047-1.843-1.004-2.881-2.87-3.115h-0.175c-1.774,0.105-3.529,0.77-5.268,1.995l-0.035,10.675h-1.016v-11.69
		c0-0.653-0.443-1.143-1.33-1.47v-0.35h2.346l-0.018,1.33C271.891,46.238,273.682,45.724,275.187,45.724z"/>
	<path fill="#C32033" d="M288.451,45.707c2.403,0.117,3.955,0.916,4.655,2.397c0.269,0.537,0.385,1.377,0.35,2.52v8.837h-1.154
		l-0.018-9.327c0.069-2.042-1.272-3.185-4.025-3.43c-1.528,0.012-2.707,0.461-3.535,1.348c-0.618,0.642-0.904,1.552-0.857,2.73v2.03
		c0.536-0.606,1.254-0.916,2.152-0.927h1.646v1.208h-1.873c-1.166,0.21-1.802,0.723-1.907,1.54c-0.094,0.105-0.129,0.52-0.104,1.243
		v3.587h-0.998v-9.275c0-2.03,0.98-3.406,2.94-4.13C286.468,45.823,287.378,45.707,288.451,45.707z"/>
	<path fill="#C32033" d="M295.329,40.019c0.898,0.677,1.481,1.26,1.75,1.75c0.268,0.49,0.461,0.887,0.577,1.19
		c0.116,0.304,0.187,0.817,0.21,1.54l-0.018,13.265c-0.035,0.747,0.274,1.219,0.928,1.417v0.385h-2.135l0.018-15.452
		c-0.047-0.467-0.1-0.817-0.158-1.05c-0.059-0.233-0.143-0.44-0.253-0.621c-0.111-0.181-0.283-0.432-0.517-0.752
		s-0.822-0.732-1.768-1.234c0.163-0.7,0.356-1.283,0.577-1.75c0.222-0.466,0.484-0.852,0.788-1.155
		c0.303-0.303,0.604-0.493,0.901-0.569c0.297-0.076,0.784-0.102,1.461-0.079h4.287v0.962h-5.337
		C295.755,38.555,295.317,39.272,295.329,40.019z"/>
	<path fill="#C32033" d="M300.894,45.847h2.327v9.643c0.245,2.333,1.715,3.459,4.41,3.377c2.17-0.21,3.459-0.98,3.867-2.31v-4.725
		v-5.985h1.05v11.97c0.105,0.688,0.531,1.114,1.277,1.278v0.367h-2.677v-0.7c-1.039,0.805-2.573,1.131-4.603,0.98
		c-2.905-0.082-4.357-1.668-4.357-4.76v-7.385c0-0.618-0.433-1.103-1.295-1.453V45.847z"/>
	<path fill="#C32033" d="M314.701,40.019c0.898,0.677,1.481,1.26,1.75,1.75c0.268,0.49,0.461,0.887,0.577,1.19
		c0.116,0.304,0.187,0.817,0.21,1.54l-0.018,13.265c-0.035,0.747,0.274,1.219,0.928,1.417v0.385h-2.135l0.018-15.452
		c-0.047-0.467-0.1-0.817-0.158-1.05c-0.059-0.233-0.143-0.44-0.253-0.621c-0.111-0.181-0.283-0.432-0.517-0.752
		s-0.822-0.732-1.768-1.234c0.163-0.7,0.356-1.283,0.577-1.75c0.222-0.466,0.484-0.852,0.788-1.155
		c0.303-0.303,0.604-0.493,0.901-0.569c0.297-0.076,0.784-0.102,1.461-0.079h4.287v0.962h-5.337
		C315.127,38.555,314.689,39.272,314.701,40.019z"/>
	<path fill="#C32033" d="M327.056,45.812c2.567,0,4.253,0.91,5.058,2.73c0.129,0.502,0.192,0.992,0.192,1.47v7.84
		c0.012,0.852,0.31,1.342,0.893,1.47v0.21h-1.347c-0.409-0.047-0.59-0.245-0.543-0.595v-7.63c-1.05,1.097-2.607,1.762-4.673,1.995
		c-3.104,0.269-4.619,1.178-4.55,2.73c0.012,1.318,0.904,2.211,2.678,2.677c0.303,0.059,0.595,0.064,0.875,0.018
		c0.746,0.035,1.517-0.105,2.31-0.42v1.155c-0.595,0.094-1.371,0.164-2.327,0.21c-2.485,0-3.938-1.026-4.357-3.08
		c-0.047-0.304-0.07-0.607-0.07-0.91v-0.42c0.151-1.015,0.712-1.768,1.681-2.258c0.793-0.385,2.111-0.688,3.955-0.91
		c1.703-0.105,3.202-0.84,4.497-2.205v-0.228c-0.187-1.552-1.505-2.514-3.955-2.888l-0.245,0.018
		c-2.007-0.093-3.535,0.869-4.585,2.888l-0.104,0.612h-0.963c0-0.933,0.455-1.901,1.365-2.905
		C324.028,46.336,325.435,45.812,327.056,45.812z"/>
	<path fill="#C32033" d="M339.341,45.776h0.489c0.467,0,0.934,0.047,1.4,0.14v1.243l-1.05-0.175h-0.245
		c-2.089-0.082-3.2,0.549-3.334,1.89c-0.134,1.342,0.802,2.112,2.809,2.31h1.155l0.473,1.015h-2.065
		c-1.376,0.292-2.205,1.073-2.484,2.345l-0.018,0.298c-0.129,2.229,1.219,3.395,4.042,3.5l4.323-0.018V45.847h1.085v1.68v11.9
		h-5.601c-3.359,0-5.04-1.447-5.04-4.34c0-1.435,0.618-2.531,1.855-3.29c-1.097-0.758-1.646-1.528-1.646-2.31v-0.56
		c0-1.4,0.863-2.403,2.59-3.01C338.547,45.823,338.967,45.776,339.341,45.776z"/>
	<path fill="#C32033" d="M345.57,42.452v0.717v1.313h-5.617h-3.92l1.646-1.172h6.02v-0.857H345.57z"/>
</g>
</svg>
